<?xml version="1.0" encoding="utf-8"?>
<!-- Generator: Adobe Illustrator 26.2.0, SVG Export Plug-In . SVG Version: 6.00 Build 0)  -->
<svg version="1.1" id="레이어_1" xmlns="http://www.w3.org/2000/svg" xmlns:xlink="http://www.w3.org/1999/xlink" x="0px"
	 y="0px" viewBox="0 0 45 45" style="enable-background:new 0 0 45 45;" xml:space="preserve">
<style type="text/css">
	.st0{fill:#FFFFFF;}
	.st1{fill:#FFF100;}
</style>
<g>
	<g>
		<g>
			<path class="st0" d="M22.1,28.4c2,0,3.6-1.6,3.6-3.6c0-2-1.6-3.6-3.6-3.6c-2,0-3.6,1.6-3.6,3.6C18.5,26.8,20.1,28.4,22.1,28.4z"
				/>
		</g>
		<g>
			<path class="st0" d="M2.9,20.7C2.9,31.3,11.7,40,22.5,40s19.6-8.7,19.6-19.3v-5.4H2.9V20.7z M22.1,16.7c4.4,0,8,3.6,8,8.1
				c0,4.4-3.6,8.1-8,8.1c-4.4,0-8-3.6-8-8.1C14.1,20.4,17.6,16.7,22.1,16.7z"/>
		</g>
	</g>
	<g>
		<rect x="1.5" y="5" class="st1" width="42" height="10.5"/>
	</g>
</g>
</svg>
