<?xml version="1.0" encoding="utf-8"?>
<!-- Generator: Adobe Illustrator 26.2.0, SVG Export Plug-In . SVG Version: 6.00 Build 0)  -->
<svg version="1.1" id="레이어_1" xmlns="http://www.w3.org/2000/svg" xmlns:xlink="http://www.w3.org/1999/xlink" x="0px"
	 y="0px" viewBox="0 0 45 45" style="enable-background:new 0 0 45 45;" xml:space="preserve">
<style type="text/css">
	.st0{fill:url(#SVGID_1_);}
	.st1{fill:url(#SVGID_00000008127760519981417030000008462222750779779467_);}
	.st2{fill:url(#SVGID_00000060738575271886266460000016297021405752848555_);}
</style>
<g>
	
		<linearGradient id="SVGID_1_" gradientUnits="userSpaceOnUse" x1="0.2077" y1="45.0758" x2="0.8299" y2="45.0758" gradientTransform="matrix(-13.15 43.4443 43.4443 13.15 -1928.5566 -594.1352)">
		<stop  offset="0" style="stop-color:#515BD4"/>
		<stop  offset="0.26" style="stop-color:#9510B8"/>
		<stop  offset="0.66" style="stop-color:#E51804"/>
		<stop  offset="1" style="stop-color:#FEDA77"/>
	</linearGradient>
	<path class="st0" d="M22.5,8.5c-3.8,0-4.3,0-5.8,0.1c-1.5,0.1-2.5,0.3-3.4,0.7c-0.9,0.4-1.7,0.8-2.5,1.6c-0.8,0.8-1.3,1.6-1.6,2.5
		c-0.3,0.9-0.6,1.9-0.7,3.4c-0.1,1.5-0.1,2-0.1,5.8c0,3.8,0,4.3,0.1,5.8c0.1,1.5,0.3,2.5,0.7,3.4c0.4,0.9,0.8,1.7,1.6,2.5
		c0.8,0.8,1.6,1.3,2.5,1.6c0.9,0.3,1.9,0.6,3.4,0.7c1.5,0.1,2,0.1,5.8,0.1c3.8,0,4.3,0,5.8-0.1c1.5-0.1,2.5-0.3,3.4-0.7
		c0.9-0.4,1.7-0.8,2.5-1.6c0.8-0.8,1.3-1.6,1.6-2.5c0.3-0.9,0.6-1.9,0.7-3.4c0.1-1.5,0.1-2,0.1-5.8c0-3.8,0-4.3-0.1-5.8
		c-0.1-1.5-0.3-2.5-0.7-3.4c-0.4-0.9-0.8-1.7-1.6-2.5c-0.8-0.8-1.6-1.3-2.5-1.6c-0.9-0.3-1.9-0.6-3.4-0.7
		C26.8,8.5,26.3,8.5,22.5,8.5z M22.5,11c3.7,0,4.2,0,5.7,0.1c1.4,0.1,2.1,0.3,2.6,0.5c0.7,0.3,1.1,0.6,1.6,1c0.5,0.5,0.8,1,1,1.6
		c0.2,0.5,0.4,1.2,0.5,2.6c0.1,1.5,0.1,1.9,0.1,5.7c0,3.7,0,4.2-0.1,5.7c-0.1,1.4-0.3,2.1-0.5,2.6c-0.3,0.7-0.6,1.1-1,1.6
		c-0.5,0.5-1,0.8-1.6,1c-0.5,0.2-1.2,0.4-2.6,0.5C26.7,34,26.2,34,22.5,34c-3.7,0-4.2,0-5.7-0.1c-1.4-0.1-2.1-0.3-2.6-0.5
		c-0.7-0.3-1.1-0.6-1.6-1c-0.5-0.5-0.8-1-1-1.6c-0.2-0.5-0.4-1.2-0.5-2.6C11,26.7,11,26.2,11,22.5c0-3.7,0-4.2,0.1-5.7
		c0.1-1.4,0.3-2.1,0.5-2.6c0.3-0.7,0.6-1.1,1-1.6c0.5-0.5,1-0.8,1.6-1c0.5-0.2,1.2-0.4,2.6-0.5C18.3,11,18.8,11,22.5,11z"/>
	
		<linearGradient id="SVGID_00000111161193847468621890000014530362253653663669_" gradientUnits="userSpaceOnUse" x1="0.2077" y1="45.0758" x2="0.8299" y2="45.0758" gradientTransform="matrix(-13.15 43.4443 43.4443 13.15 -1928.5566 -594.1352)">
		<stop  offset="0" style="stop-color:#515BD4"/>
		<stop  offset="0.26" style="stop-color:#9510B8"/>
		<stop  offset="0.66" style="stop-color:#E51804"/>
		<stop  offset="1" style="stop-color:#FFBF00"/>
	</linearGradient>
	<path style="fill:url(#SVGID_00000111161193847468621890000014530362253653663669_);" d="M22.5,27.2c-2.6,0-4.7-2.1-4.7-4.7
		c0-2.6,2.1-4.7,4.7-4.7c2.6,0,4.7,2.1,4.7,4.7C27.2,25.1,25.1,27.2,22.5,27.2z M22.5,15.3c-4,0-7.2,3.2-7.2,7.2
		c0,4,3.2,7.2,7.2,7.2c4,0,7.2-3.2,7.2-7.2C29.7,18.5,26.5,15.3,22.5,15.3z"/>
	
		<linearGradient id="SVGID_00000128474835574998327330000005582665734568553385_" gradientUnits="userSpaceOnUse" x1="0.2077" y1="45.1857" x2="0.8299" y2="45.1857" gradientTransform="matrix(-13.15 43.4443 43.4443 13.15 -1928.5566 -594.1352)">
		<stop  offset="0" style="stop-color:#515BD4"/>
		<stop  offset="0.26" style="stop-color:#9510B8"/>
		<stop  offset="0.66" style="stop-color:#E51804"/>
		<stop  offset="1" style="stop-color:#FFBF00"/>
	</linearGradient>
	<path style="fill:url(#SVGID_00000128474835574998327330000005582665734568553385_);" d="M31.7,15c0,0.9-0.8,1.7-1.7,1.7
		S28.3,16,28.3,15c0-0.9,0.8-1.7,1.7-1.7S31.7,14.1,31.7,15z"/>
</g>
</svg>
