<?xml version="1.0" encoding="utf-8"?>
<!-- Generator: Adobe Illustrator 26.2.0, SVG Export Plug-In . SVG Version: 6.00 Build 0)  -->
<svg version="1.1" id="레이어_1" xmlns="http://www.w3.org/2000/svg" xmlns:xlink="http://www.w3.org/1999/xlink" x="0px"
	 y="0px" viewBox="0 0 45 45" style="enable-background:new 0 0 45 45;" xml:space="preserve">
<style type="text/css">
	.st0{fill:#FFFFFF;}
	.st1{fill:none;stroke:#FFFFFF;stroke-width:4;stroke-miterlimit:10;}
</style>
<g>
	<path class="st0" d="M43.4,37.5L31.5,26c-0.2-0.2-0.4-0.4-0.7-0.5c-1.2,1.7-2.7,3.2-4.4,4.4c0.1,0.2,0.3,0.5,0.5,0.7l11.9,11.5
		c0.6,0.6,1.5,0.9,2.3,0.9c0.8,0,1.7-0.3,2.3-0.9C44.7,40.8,44.7,38.8,43.4,37.5z"/>
	<path class="st1" d="M18,2C9.3,2,2.4,9,2.4,17.6s7,15.6,15.6,15.6c3.3,0,6.3-1,8.9-2.8c1.6-1.1,3-2.5,4.1-4.1
		c1.7-2.5,2.7-5.5,2.7-8.8C33.6,9,26.6,2,18,2z"/>
</g>
</svg>
