<?xml version="1.0" encoding="utf-8"?>
<!-- Generator: Adobe Illustrator 26.2.0, SVG Export Plug-In . SVG Version: 6.00 Build 0)  -->
<svg version="1.1" id="레이어_1" xmlns="http://www.w3.org/2000/svg" xmlns:xlink="http://www.w3.org/1999/xlink" x="0px"
	 y="0px" viewBox="0 0 45 45" style="enable-background:new 0 0 45 45;" xml:space="preserve">
<style type="text/css">
	.st0{fill:#FFF100;}
	.st1{fill:none;stroke:#FFF100;stroke-width:2;stroke-linecap:round;stroke-linejoin:round;stroke-miterlimit:10;}
	.st2{fill:#FFFFFF;}
</style>
<g>
	<g>
		<path class="st0" d="M19.1,21.3c1.9,0,3.6,0.7,4.9,1.9c0.7-2.8,2.7-5,5.4-6c-0.9-4-4.3-7.3-8.7-7.9c-5.8-0.9-11.2,3-12,8.7
			c-0.6,3.6,0.9,7.1,3.5,9.3C12.6,23.9,15.5,21.3,19.1,21.3z"/>
		<line class="st1" x1="21.9" y1="1.5" x2="21.1" y2="6.6"/>
		<line class="st1" x1="9.5" y1="3.9" x2="12.2" y2="8.3"/>
		<line class="st1" x1="1.5" y1="13.6" x2="6.5" y2="15.3"/>
		<line class="st1" x1="1.8" y1="26.1" x2="6.7" y2="24.2"/>
		<line class="st1" x1="33.1" y1="7.5" x2="29.1" y2="10.9"/>
	</g>
	<path class="st2" d="M36.9,25.9c0.4-1,0.6-2,0.6-3.1c0-4.5-3.6-8.1-8.1-8.1c-1,0-1.9,0.2-2.8,0.5c-2.6,0.9-4.5,3.1-5.1,5.8
		c-1.2-1.2-2.8-1.9-4.6-1.9c-3.4,0-6.2,2.5-6.7,5.8c0,0.3-0.1,0.6-0.1,0.9c0,0,0,0,0,0c-4,0.5-7,3.9-7,8c0,4.5,3.6,8.1,8.1,8.1
		c1.5,0,2.9-0.4,4.1-1.2c1.8,1.7,4.1,2.8,6.8,2.8c3.2,0,6-1.5,7.8-3.9c1.5,1.4,3.4,2.3,5.6,2.3c4.5,0,8.1-3.6,8.1-8.1
		C43.5,29.9,40.6,26.6,36.9,25.9z"/>
</g>
</svg>
