<?xml version="1.0" encoding="utf-8"?>
<!-- Generator: Adobe Illustrator 26.2.0, SVG Export Plug-In . SVG Version: 6.00 Build 0)  -->
<svg version="1.1" id="레이어_1" xmlns="http://www.w3.org/2000/svg" xmlns:xlink="http://www.w3.org/1999/xlink" x="0px"
	 y="0px" viewBox="0 0 45 45" style="enable-background:new 0 0 45 45;" xml:space="preserve">
<style type="text/css">
	.st0{fill:#E60012;}
	.st1{fill:#F1F1F1;}
</style>
<g>
	<g>
		<path class="st0" d="M35.9,15.6c-0.3-1.2-1.3-2.2-2.5-2.5c-2.2-0.6-10.9-0.6-10.9-0.6s-8.8,0-10.9,0.6c-1.2,0.3-2.2,1.3-2.5,2.5
			c-0.6,2.2-0.6,6.9-0.6,6.9s0,4.6,0.6,6.9c0.3,1.2,1.3,2.2,2.5,2.5c2.2,0.6,10.9,0.6,10.9,0.6s8.8,0,10.9-0.6
			c1.2-0.3,2.2-1.3,2.5-2.5c0.6-2.2,0.6-6.9,0.6-6.9S36.5,17.9,35.9,15.6z"/>
	</g>
	<g>
		<polygon class="st1" points="19.6,18.2 19.6,26.8 27,22.5 		"/>
	</g>
</g>
</svg>
